<?xml version="1.0" encoding="UTF-8"?>
<!-- Generated by Pixelmator Pro 3.8 -->
<svg width="779" height="779" viewBox="0 0 779 779" xmlns="http://www.w3.org/2000/svg">
    <g id="Group">
        <path id="Path" fill="#326add" fill-rule="evenodd" stroke="#000000" stroke-width="1.173807" stroke-linecap="round" stroke-linejoin="round" d="M 315.416504 293.877106 L 156.163513 345.355133 L 0.550461 470.047241 L 134.062759 446.182983 L 315.416504 293.877106 Z"/>
    </g>
    <g id="g1">
        <path id="path1" fill="none" stroke="none" d="M 180.726761 12.408142 L 337.090973 12.408142 L 337.090973 36.198792 L 180.726761 36.198792 Z"/>
    </g>
    <g id="g2">
        <path id="path2" fill="#8ab1ff" fill-rule="evenodd" stroke="#000000" stroke-width="0.97341" stroke-linecap="round" stroke-linejoin="round" d="M 315.415436 293.876617 L 641.235901 293.876617 L 641.235901 572.609985 L 315.415436 572.609985 Z"/>
    </g>
    <g id="g3">
        <path id="path3" fill="#6b9afa" fill-rule="evenodd" stroke="#000000" stroke-width="1.000576" stroke-linecap="round" stroke-linejoin="round" d="M 134.060059 446.430054 L 315.414459 293.87793 L 315.414459 572.609863 L 134.060059 755.750977 L 134.060059 446.430054 Z"/>
    </g>
    <g id="g4">
        <path id="path4" fill="#b81b1c" fill-rule="evenodd" stroke="none" d="M 318.487274 255.657227 L 380.36853 295.186371 L 343.33194 351.451111 L 409.004913 368.70694 L 389.900543 438.993317 L 324.227631 421.736877 L 327.77887 488.666962 L 254.085938 492.577026 L 250.534668 425.646942 L 187.05658 449.756012 L 160.621765 381.885925 L 224.099976 357.777435 L 181.317398 305.747833 L 238.668213 259.892334 L 281.450745 311.921295 L 318.487274 255.657227 Z"/>
    </g>
    <g id="g5">
        <path id="path5" fill="#3b5790" fill-rule="evenodd" stroke="#000000" stroke-width="0.995129" stroke-linecap="round" stroke-linejoin="round" d="M 496.770325 446.430542 L 641.236389 293.876587 L 641.236389 582.888306 L 496.770325 755.751221 L 496.770325 446.430542 Z"/>
    </g>
    <g id="g6">
        <path id="path6" fill="#3471ee" fill-rule="evenodd" stroke="none" d="M 134.060822 446.431793 L 496.769653 446.431793 L 496.769653 755.752197 L 134.060822 755.752197 Z"/>
    </g>
    <g id="g7">
        <path id="path7" fill="#326add" fill-rule="evenodd" stroke="#000000" stroke-width="0.982532" stroke-linecap="round" stroke-linejoin="round" d="M 641.233643 293.877411 L 777.986816 339.374878 L 641.23822 496.458435 L 496.772461 446.181671"/>
    </g>
    <g id="g8">
        <path id="path8" fill="#b81b1c" fill-rule="evenodd" stroke="none" d="M 693.008606 133.137146 L 698.630432 230.838501 L 609.065063 234.319641 L 641.669312 318.867767 L 550.963623 352.649597 L 518.359314 268.101471 L 448.943298 323.835358 L 387.2659 247.016785 L 456.681946 191.282837 L 381.175812 141.180481 L 433.758362 59.916626 L 509.264526 110.018982 L 532.015747 23.321533 L 626.194519 49.920776 L 603.443237 136.618286 L 693.008606 133.137146 Z"/>
    </g>
</svg>
