<?xml version="1.0" encoding="UTF-8" standalone="no"?>
<!DOCTYPE svg PUBLIC "-//W3C//DTD SVG 1.1//EN" "http://www.w3.org/Graphics/SVG/1.1/DTD/svg11.dtd">
<svg width="100%" height="100%" viewBox="0 0 887 894" version="1.1" xmlns="http://www.w3.org/2000/svg" xmlns:xlink="http://www.w3.org/1999/xlink" xml:space="preserve" xmlns:serif="http://www.serif.com/" style="fill-rule:evenodd;clip-rule:evenodd;stroke-linecap:round;stroke-linejoin:round;stroke-miterlimit:1.5;">
    <g transform="matrix(0.609197,-0.138274,0.0860211,0.378985,-635.137,230.384)">
        <path d="M1519.54,876.092L1239.65,916.444L938.51,1151.67L1165.99,1168.62L1519.54,876.092Z" style="fill:rgb(50,106,221);stroke:black;stroke-width:2.31px;"/>
    </g>
    <g transform="matrix(1.16464,0,0,1.16464,-987.732,-1231.01)">
        <rect x="1041" y="1106" width="140.823" height="21.426" style="fill:none;"/>
    </g>
    <g transform="matrix(0.56116,0,0,0.475379,-17.3482,29.0391)">
        <rect x="683" y="680" width="609" height="615" style="fill:rgb(138,177,255);stroke:black;stroke-width:1.88px;"/>
    </g>
    <g transform="matrix(0.624693,0,0,0.624693,-545.815,-281.452)">
        <path d="M1155,1270.64L1459.5,1014.5L1459.5,1482.5L1155,1790L1155,1270.64Z" style="fill:rgb(107,154,250);stroke:black;stroke-width:1.6px;"/>
    </g>
    <g transform="matrix(-0.0814198,0.349741,-0.454654,-0.105844,693.532,114.933)">
        <path d="M1444.08,513.692L1491.54,540.478L1389.32,649.771L1554.71,691.517L1536.58,734.858L1371.19,693.111L1371.19,828.205L1312.53,828.205L1312.53,693.111L1147.13,734.858L1129.01,691.517L1294.4,649.771L1192.18,540.478L1239.64,513.692L1341.86,622.986L1444.08,513.692Z" style="fill:rgb(184,27,28);"/>
    </g>
    <g transform="matrix(0.497627,0,0,0.589634,-18.616,-218.697)">
        <path d="M1155,1239.76L1459.5,968.387L1459.5,1482.5L1155,1790L1155,1239.76Z" style="fill:rgb(59,87,144);stroke:black;stroke-width:1.83px;"/>
    </g>
    <g transform="matrix(0.624693,0,0,0.527544,-250.96,153.578)">
        <rect x="683" y="680" width="609" height="615" style="fill:rgb(52,113,238);"/>
    </g>
    <g transform="matrix(0.616953,-0.0980322,0.0686934,0.432313,-612.954,176.022)">
        <path d="M2043.56,871.15L2258.34,1030.24L1990.19,1350.55L1763.88,1177.25" style="fill:rgb(50,106,221);stroke:black;stroke-width:1.85px;"/>
    </g>
    <g transform="matrix(0.488566,-0.0259229,0.0273124,0.514754,-519.498,114.048)">
        <path d="M1942.69,359.251L2010.25,405.171L1927.49,511.735L2061.39,552.439L2035.59,626.739L1901.68,586.035L1901.68,717.756L1818.18,717.756L1818.18,586.035L1684.27,626.739L1658.47,552.439L1792.37,511.735L1709.61,405.171L1777.17,359.251L1859.93,465.816L1942.69,359.251Z" style="fill:rgb(184,27,28);"/>
    </g>
    <g transform="matrix(0.324073,0.40363,-0.465639,0.37386,-3.45043,-970.57)">
        <path d="M2593.8,200.222L2684.49,256.232L2596.7,358.952L2738.76,398.187L2704.12,488.813L2562.05,449.577L2562.05,576.546L2449.95,576.546L2449.95,449.577L2307.88,488.813L2273.24,398.187L2415.3,358.952L2327.51,256.232L2418.2,200.222L2506,302.942L2593.8,200.222Z" style="fill:rgb(184,27,28);"/>
    </g>
</svg>
