<?xml version="1.0" encoding="UTF-8" standalone="no"?>
<!DOCTYPE svg PUBLIC "-//W3C//DTD SVG 1.1//EN" "http://www.w3.org/Graphics/SVG/1.1/DTD/svg11.dtd">
<svg width="100%" height="100%" viewBox="0 0 817 781" version="1.1" xmlns="http://www.w3.org/2000/svg" xmlns:xlink="http://www.w3.org/1999/xlink" xml:space="preserve" xmlns:serif="http://www.serif.com/" style="fill-rule:evenodd;clip-rule:evenodd;stroke-linecap:round;stroke-linejoin:round;stroke-miterlimit:1.5;">
    <g transform="matrix(0.580808,-0.13183,0.0820125,0.361324,-619.995,183.645)">
        <path d="M1519.54,876.092L1239.65,916.444L938.51,1151.67L1165.99,1168.62L1519.54,876.092Z" style="fill:rgb(50,106,221);stroke:black;stroke-width:2.43px;"/>
    </g>
    <g transform="matrix(1.11036,0,0,1.11036,-956.158,-1209.65)">
        <rect x="1041" y="1106" width="140.823" height="21.426" style="fill:none;"/>
    </g>
    <g transform="matrix(0.535009,0,0,0.453225,-30.9957,-8.31638)">
        <rect x="683" y="680" width="609" height="615" style="fill:rgb(138,177,255);stroke:black;stroke-width:1.97px;"/>
    </g>
    <g transform="matrix(0.595581,0,0,0.595581,-534.836,-304.339)">
        <path d="M1155,1270.64L1459.5,1014.5L1459.5,1482.5L1155,1790L1155,1270.64Z" style="fill:rgb(107,154,250);stroke:black;stroke-width:1.68px;"/>
    </g>
    <g transform="matrix(0.598254,-0.0317428,0.0334443,0.630322,-826.783,103.244)">
        <path d="M1926.64,348.346L2026.29,416.077L1959.58,501.981L2067.52,534.793L2029.46,644.385L1921.52,611.572L1921.52,717.756L1798.34,717.756L1798.34,611.572L1690.4,644.385L1652.34,534.793L1760.28,501.981L1693.57,416.077L1793.22,348.346L1859.93,434.249L1926.64,348.346Z" style="fill:rgb(184,27,28);"/>
    </g>
    <g transform="matrix(0.474437,0,0,0.562156,-32.2044,-244.508)">
        <path d="M1155,1239.76L1459.5,968.387L1459.5,1482.5L1155,1790L1155,1239.76Z" style="fill:rgb(59,87,144);stroke:black;stroke-width:1.92px;"/>
    </g>
    <g transform="matrix(0.595581,0,0,0.50296,-253.721,110.419)">
        <rect x="683" y="680" width="609" height="615" style="fill:rgb(52,113,238);"/>
    </g>
    <g transform="matrix(0.588202,-0.0934638,0.0654922,0.412167,-598.846,131.817)">
        <path d="M2043.56,871.15L2258.34,1030.24L1990.19,1350.55L1763.88,1177.25" style="fill:rgb(50,106,221);stroke:black;stroke-width:1.94px;"/>
    </g>
    <g transform="matrix(0.438298,0.545896,-0.629761,0.505633,-298.184,-1368.11)">
        <path d="M2582.22,193.072L2696.07,263.382L2619.85,352.556L2743.18,386.618L2699.69,500.382L2576.36,466.32L2576.36,576.546L2435.64,576.546L2435.64,466.32L2312.31,500.382L2268.82,386.618L2392.15,352.556L2315.93,263.382L2429.78,193.072L2506,282.246L2582.22,193.072Z" style="fill:rgb(184,27,28);"/>
    </g>
</svg>
