<?xml version="1.0" encoding="UTF-8"?>
<!-- Generated by Pixelmator Pro 3.8 -->
<svg width="818" height="818" viewBox="0 0 818 818" xmlns="http://www.w3.org/2000/svg">
    <g id="Group">
        <path id="Path" fill="#326add" fill-rule="evenodd" stroke="#000000" stroke-width="1.170381" stroke-linecap="round" stroke-linejoin="round" d="M 330.924622 310.296814 L 163.887589 364.291138 L 0.668407 495.078125 L 140.706589 470.047363 L 330.924622 310.296814 Z"/>
    </g>
    <g id="g1">
        <path id="path1" fill="none" stroke="none" d="M 189.658234 15.081848 L 353.666351 15.081848 L 353.666351 40.035461 L 189.658234 40.035461 Z"/>
    </g>
    <g id="g2">
        <path id="path2" fill="#8ab1ff" fill-rule="evenodd" stroke="#000000" stroke-width="0.974347" stroke-linecap="round" stroke-linejoin="round" d="M 330.924072 310.296814 L 672.670532 310.296814 L 672.670532 602.654907 L 330.924072 602.654907 Z"/>
    </g>
    <g id="g3">
        <path id="path3" fill="#6b9afa" fill-rule="evenodd" stroke="#000000" stroke-width="0.999509" stroke-linecap="round" stroke-linejoin="round" d="M 140.705414 470.307922 L 330.924438 310.299072 L 330.924438 602.655396 L 140.705414 794.748474 L 140.705414 470.307922 Z"/>
    </g>
    <g id="g4">
        <path id="path4" fill="#b81b1c" fill-rule="evenodd" stroke="none" d="M 307.403168 523.615723 L 291.360626 537.379333 L 249.992859 490.060791 L 217.546844 543.485901 L 199.317856 532.557739 L 231.764282 479.13269 L 170.343262 464.833801 L 175.119339 444.318024 L 236.540375 458.616913 L 231.026794 396.351074 L 252.207245 394.601166 L 257.721222 456.863403 L 315.734436 432.680878 L 324.048615 452.114716 L 266.034943 476.297119 L 307.403168 523.615723 Z"/>
    </g>
    <g id="g5">
        <path id="path5" fill="#3b5790" fill-rule="evenodd" stroke="#000000" stroke-width="0.994844" stroke-linecap="round" stroke-linejoin="round" d="M 521.143188 470.307648 L 672.670593 310.296936 L 672.670593 613.435425 L 521.143188 794.747864 L 521.143188 470.307648 Z"/>
    </g>
    <g id="g6">
        <path id="path6" fill="#3471ee" fill-rule="evenodd" stroke="none" d="M 140.705322 470.307922 L 521.143372 470.307922 L 521.143372 794.747498 L 140.705322 794.747498 Z"/>
    </g>
    <g id="g7">
        <path id="path7" fill="#326add" fill-rule="evenodd" stroke="#000000" stroke-width="0.982747" stroke-linecap="round" stroke-linejoin="round" d="M 672.668762 310.296814 L 816.106384 358.018097 L 672.673523 522.779663 L 521.146362 470.045441"/>
    </g>
    <g id="g8">
        <path id="path8" fill="#b81b1c" fill-rule="evenodd" stroke="none" d="M 404.446259 206.613708 L 438.708008 228.499878 L 401.184784 285.499512 L 467.715454 302.981018 L 457.139801 341.896027 L 390.604248 324.414795 L 394.201843 392.218689 L 353.406586 394.38327 L 349.80899 326.579346 L 285.496826 351.003265 L 270.862488 313.425842 L 335.169739 289.002197 L 291.8255 236.293335 L 323.578857 210.90448 L 366.923126 263.613892 L 404.446259 206.613708 Z"/>
    </g>
    <g id="g9">
        <path id="path9" fill="#b81b1c" fill-rule="evenodd" stroke="none" d="M 708.898987 109.22052 L 712.208679 166.765564 L 635.927856 169.733765 L 663.69635 241.741882 L 610.271484 261.641602 L 582.500244 189.629089 L 523.378479 237.097778 L 487.049866 191.850769 L 546.171631 144.382141 L 481.860718 101.707153 L 512.833862 53.844055 L 577.141052 96.515381 L 596.521118 22.677734 L 651.991699 38.343018 L 632.614929 112.184692 L 708.898987 109.22052 Z"/>
    </g>
</svg>
